<mxfile host="65bd71144e">
    <diagram name="Página-1" id="MyzGb4AWoMDugNOR0tzc">
        <mxGraphModel dx="3628" dy="2355" grid="1" gridSize="10" guides="1" tooltips="1" connect="1" arrows="1" fold="1" page="1" pageScale="1" pageWidth="1169" pageHeight="827" background="#999999" math="0" shadow="0" adaptiveColors="none">
            <root>
                <mxCell id="0"/>
                <mxCell id="1" parent="0"/>
                <mxCell id="mkdnd21y6ApAW0Ob3dTZ-105" value="2023 / 2024" style="rounded=0;whiteSpace=wrap;html=1;fillColor=#008a00;fontColor=#ffffff;strokeColor=#005700;fontFamily=Times New Roman;" parent="1" vertex="1">
                    <mxGeometry x="-2320" y="-1600" width="160" height="20" as="geometry"/>
                </mxCell>
                <mxCell id="mkdnd21y6ApAW0Ob3dTZ-106" value="2022 / 2023" style="rounded=0;whiteSpace=wrap;html=1;fillColor=#e3c800;fontColor=#000000;strokeColor=#B09500;fontFamily=Times New Roman;" parent="1" vertex="1">
                    <mxGeometry x="-2320" y="-1580" width="160" height="20" as="geometry"/>
                </mxCell>
                <mxCell id="mkdnd21y6ApAW0Ob3dTZ-107" value="2021 / 2022" style="rounded=0;whiteSpace=wrap;html=1;fillColor=#f5f5f5;fontColor=#333333;strokeColor=#666666;fontFamily=Times New Roman;" parent="1" vertex="1">
                    <mxGeometry x="-2320" y="-1560" width="160" height="20" as="geometry"/>
                </mxCell>
                <mxCell id="mkdnd21y6ApAW0Ob3dTZ-108" value="2019 / 2020" style="rounded=0;whiteSpace=wrap;html=1;fillColor=#0050ef;fontColor=#ffffff;strokeColor=#001DBC;fontFamily=Times New Roman;" parent="1" vertex="1">
                    <mxGeometry x="-2320" y="-1540" width="160" height="20" as="geometry"/>
                </mxCell>
                <mxCell id="mkdnd21y6ApAW0Ob3dTZ-109" value="2018 / 2019" style="rounded=0;whiteSpace=wrap;html=1;fillColor=#fa6800;fontColor=#000000;strokeColor=#C73500;fontFamily=Times New Roman;" parent="1" vertex="1">
                    <mxGeometry x="-2320" y="-1520" width="160" height="20" as="geometry"/>
                </mxCell>
                <mxCell id="mkdnd21y6ApAW0Ob3dTZ-110" value="&amp;nbsp;Legenda Matrículas:" style="rounded=0;whiteSpace=wrap;html=1;fillColor=#f5f5f5;gradientColor=#b3b3b3;strokeColor=#666666;fontFamily=Times New Roman;" parent="1" vertex="1">
                    <mxGeometry x="-2320" y="-1640" width="160" height="20" as="geometry"/>
                </mxCell>
                <mxCell id="mkdnd21y6ApAW0Ob3dTZ-111" value="2017 / 2018" style="rounded=0;whiteSpace=wrap;html=1;fillColor=#000066;fontColor=#ffffff;strokeColor=#432D57;fontFamily=Times New Roman;" parent="1" vertex="1">
                    <mxGeometry x="-2320" y="-1500" width="160" height="20" as="geometry"/>
                </mxCell>
                <mxCell id="mkdnd21y6ApAW0Ob3dTZ-112" value="2016 / 2017" style="rounded=0;whiteSpace=wrap;html=1;fillColor=#f0a30a;fontColor=#000000;strokeColor=#BD7000;fontFamily=Times New Roman;" parent="1" vertex="1">
                    <mxGeometry x="-2320" y="-1480" width="160" height="21" as="geometry"/>
                </mxCell>
                <mxCell id="mkdnd21y6ApAW0Ob3dTZ-113" value="2015 / 2016" style="rounded=0;whiteSpace=wrap;html=1;fillColor=#CCCCCC;strokeColor=#666666;fontColor=#333333;fontFamily=Times New Roman;" parent="1" vertex="1">
                    <mxGeometry x="-2320" y="-1459" width="160" height="20" as="geometry"/>
                </mxCell>
                <mxCell id="mkdnd21y6ApAW0Ob3dTZ-193" value="2014 / 2015" style="rounded=0;whiteSpace=wrap;html=1;fillColor=#d80073;fontColor=#ffffff;strokeColor=#A50040;fontFamily=Times New Roman;" parent="1" vertex="1">
                    <mxGeometry x="-2320" y="-1439" width="160" height="20" as="geometry"/>
                </mxCell>
                <mxCell id="mkdnd21y6ApAW0Ob3dTZ-196" value="2013 / 2014" style="rounded=0;whiteSpace=wrap;html=1;fillColor=#a20025;fontColor=#ffffff;strokeColor=#6F0000;fontFamily=Times New Roman;" parent="1" vertex="1">
                    <mxGeometry x="-2320" y="-1419" width="160" height="20" as="geometry"/>
                </mxCell>
                <mxCell id="mkdnd21y6ApAW0Ob3dTZ-197" value="2012&lt;span style=&quot;background-color: initial;&quot;&gt;&amp;nbsp;/ 2013&lt;/span&gt;" style="rounded=0;whiteSpace=wrap;html=1;fillColor=#60a917;fontColor=#ffffff;strokeColor=#2D7600;fontFamily=Times New Roman;" parent="1" vertex="1">
                    <mxGeometry x="-2320" y="-1399" width="160" height="20" as="geometry"/>
                </mxCell>
                <mxCell id="mkdnd21y6ApAW0Ob3dTZ-198" value="2011&lt;span style=&quot;background-color: initial;&quot;&gt;&amp;nbsp;/ 2012&lt;/span&gt;" style="rounded=0;whiteSpace=wrap;html=1;fillColor=#1ba1e2;fontColor=#ffffff;strokeColor=#006EAF;fontFamily=Times New Roman;" parent="1" vertex="1">
                    <mxGeometry x="-2320" y="-1379" width="160" height="20" as="geometry"/>
                </mxCell>
                <mxCell id="mkdnd21y6ApAW0Ob3dTZ-199" value="2010&lt;span style=&quot;background-color: initial;&quot;&gt;&amp;nbsp;/ 2011&lt;/span&gt;" style="rounded=0;whiteSpace=wrap;html=1;fillColor=#FFFF00;fontColor=#000000;fontFamily=Times New Roman;" parent="1" vertex="1">
                    <mxGeometry x="-2320" y="-1359" width="160" height="20" as="geometry"/>
                </mxCell>
                <mxCell id="mkdnd21y6ApAW0Ob3dTZ-201" value="2010+" style="rounded=0;whiteSpace=wrap;html=1;fillColor=#a0522d;strokeColor=#6D1F00;fontColor=#ffffff;fontFamily=Times New Roman;" parent="1" vertex="1">
                    <mxGeometry x="-2320" y="-1339" width="160" height="20" as="geometry"/>
                </mxCell>
                <mxCell id="mkdnd21y6ApAW0Ob3dTZ-259" value="Não sabemos ano" style="rounded=0;whiteSpace=wrap;html=1;fillColor=#f5f5f5;gradientColor=#b3b3b3;strokeColor=#666666;fontFamily=Times New Roman;" parent="1" vertex="1">
                    <mxGeometry x="-2320" y="-1319" width="160" height="20" as="geometry"/>
                </mxCell>
                <mxCell id="SZR8bBrm5BMhKsoexoeL-1" value="&lt;div&gt;Vitor Paiva&amp;nbsp;&lt;/div&gt;&lt;div&gt;(&lt;font&gt;&lt;i&gt;Cardinalli&lt;/i&gt;&lt;/font&gt;)&lt;/div&gt;" style="rounded=0;whiteSpace=wrap;html=1;fillColor=#f0a30a;fontColor=#000000;strokeColor=#BD7000;fontFamily=Times New Roman;" parent="1" vertex="1">
                    <mxGeometry x="-1520" y="-1520" width="120" height="40" as="geometry"/>
                </mxCell>
                <mxCell id="SZR8bBrm5BMhKsoexoeL-2" value="&lt;div&gt;Patrícia Padeiro&amp;nbsp;&lt;/div&gt;&lt;div&gt;(&lt;font&gt;&lt;i&gt;A Caloira Tímida&lt;/i&gt;&lt;/font&gt;)&lt;/div&gt;" style="rounded=0;whiteSpace=wrap;html=1;fillColor=#000066;fontColor=#F0F0F0;fontFamily=Times New Roman;" parent="1" vertex="1">
                    <mxGeometry x="-1920" y="-1400" width="120" height="40" as="geometry"/>
                </mxCell>
                <mxCell id="SZR8bBrm5BMhKsoexoeL-3" value="&lt;div&gt;Gonçalo Caroça&amp;nbsp;&lt;/div&gt;&lt;div&gt;(&lt;i&gt;&lt;font&gt;????&lt;/font&gt;&lt;/i&gt;)&lt;/div&gt;" style="rounded=0;whiteSpace=wrap;html=1;fillColor=#fa6800;fontColor=#000000;strokeColor=#C73500;fontFamily=Times New Roman;" parent="1" vertex="1">
                    <mxGeometry x="-1260" y="-1400" width="120" height="40" as="geometry"/>
                </mxCell>
                <mxCell id="SZR8bBrm5BMhKsoexoeL-4" value="&lt;div&gt;Tiago Correia&amp;nbsp;&lt;/div&gt;&lt;div&gt;(&lt;font&gt;&lt;i&gt;Linguini&lt;/i&gt;&lt;/font&gt;)&lt;/div&gt;" style="rounded=0;whiteSpace=wrap;html=1;fillColor=#fa6800;fontColor=#000000;strokeColor=#C73500;fontFamily=Times New Roman;" parent="1" vertex="1">
                    <mxGeometry x="-1720" y="-1400" width="120" height="40" as="geometry"/>
                </mxCell>
                <mxCell id="SZR8bBrm5BMhKsoexoeL-5" value="&lt;div&gt;Carlos Viegas&amp;nbsp;&lt;/div&gt;&lt;div&gt;(&lt;font&gt;&lt;i&gt;Pogba&lt;/i&gt;&lt;/font&gt;)&lt;/div&gt;" style="rounded=0;whiteSpace=wrap;html=1;fillColor=#000066;fontColor=#FFFFFF;strokeColor=#000000;fontFamily=Times New Roman;" parent="1" vertex="1">
                    <mxGeometry x="-2120" y="-1400" width="120" height="40" as="geometry"/>
                </mxCell>
                <mxCell id="SZR8bBrm5BMhKsoexoeL-6" value="&lt;div&gt;Ivo Pacheco&lt;/div&gt;&lt;div&gt;(&lt;font&gt;&lt;i&gt;Bêbado 1&lt;/i&gt;&lt;/font&gt;)&lt;/div&gt;" style="rounded=0;whiteSpace=wrap;html=1;fillColor=#fa6800;fontColor=#000000;strokeColor=#C73500;fontFamily=Times New Roman;" parent="1" vertex="1">
                    <mxGeometry x="-1520" y="-1400" width="120" height="40" as="geometry"/>
                </mxCell>
                <mxCell id="SZR8bBrm5BMhKsoexoeL-7" value="&lt;div&gt;João Novo&amp;nbsp;&lt;/div&gt;&lt;div&gt;(&lt;font&gt;&lt;i&gt;Dillaz 2.0&lt;/i&gt;&lt;/font&gt;)&lt;/div&gt;" style="rounded=0;whiteSpace=wrap;html=1;fillColor=#f5f5f5;fontColor=#333333;strokeColor=#666666;fontFamily=Times New Roman;" parent="1" vertex="1">
                    <mxGeometry x="-1380" y="-1320" width="120" height="40" as="geometry"/>
                </mxCell>
                <mxCell id="SZR8bBrm5BMhKsoexoeL-8" value="&lt;div&gt;Joana Pires&amp;nbsp;&lt;/div&gt;&lt;div&gt;(&lt;font&gt;&lt;i&gt;Terrorista&lt;/i&gt;&lt;/font&gt;)&lt;/div&gt;" style="rounded=0;whiteSpace=wrap;html=1;fillColor=#f5f5f5;fontColor=#333333;strokeColor=#666666;fontFamily=Times New Roman;" parent="1" vertex="1">
                    <mxGeometry x="-1120" y="-1319" width="120" height="40" as="geometry"/>
                </mxCell>
                <mxCell id="SZR8bBrm5BMhKsoexoeL-9" value="&lt;div&gt;Mariana Muñoz&amp;nbsp;&lt;/div&gt;&lt;div&gt;(&lt;font&gt;&lt;i&gt;Fruta da Época&lt;/i&gt;&lt;/font&gt;)&lt;/div&gt;" style="rounded=0;whiteSpace=wrap;html=1;fillColor=#0050ef;fontColor=#ffffff;strokeColor=#001DBC;fontFamily=Times New Roman;" parent="1" vertex="1">
                    <mxGeometry x="-1980" y="-1320" width="120" height="40" as="geometry"/>
                </mxCell>
                <mxCell id="SZR8bBrm5BMhKsoexoeL-10" value="&lt;div&gt;Pedro Monteiro&amp;nbsp;&lt;/div&gt;&lt;div&gt;(&lt;font&gt;&lt;i&gt;PaPi?&lt;/i&gt;&lt;/font&gt;)&lt;/div&gt;" style="rounded=0;whiteSpace=wrap;html=1;fillColor=#008a00;fontColor=#ffffff;strokeColor=#005700;fontFamily=Times New Roman;" parent="1" vertex="1">
                    <mxGeometry x="-1860" y="-1320" width="120" height="40" as="geometry"/>
                </mxCell>
                <mxCell id="SZR8bBrm5BMhKsoexoeL-11" value="&lt;div&gt;Bernardo Jaco&amp;nbsp;&lt;/div&gt;&lt;div&gt;(&lt;font&gt;&lt;i&gt;Mirone&lt;/i&gt;&lt;/font&gt;)&lt;/div&gt;" style="rounded=0;whiteSpace=wrap;html=1;fillColor=#008a00;fontColor=#ffffff;strokeColor=#005700;fontFamily=Times New Roman;" parent="1" vertex="1">
                    <mxGeometry x="-1380" y="-1240" width="120" height="40" as="geometry"/>
                </mxCell>
                <mxCell id="SZR8bBrm5BMhKsoexoeL-12" value="" style="endArrow=none;html=1;rounded=0;exitX=0.5;exitY=0;exitDx=0;exitDy=0;fontFamily=Times New Roman;" parent="1" source="SZR8bBrm5BMhKsoexoeL-5" edge="1">
                    <mxGeometry width="50" height="50" relative="1" as="geometry">
                        <mxPoint x="-1890" y="-1669" as="sourcePoint"/>
                        <mxPoint x="-1660" y="-1501" as="targetPoint"/>
                    </mxGeometry>
                </mxCell>
                <mxCell id="SZR8bBrm5BMhKsoexoeL-13" value="" style="endArrow=none;html=1;rounded=0;exitX=0.5;exitY=0;exitDx=0;exitDy=0;fontFamily=Times New Roman;" parent="1" source="SZR8bBrm5BMhKsoexoeL-2" edge="1">
                    <mxGeometry width="50" height="50" relative="1" as="geometry">
                        <mxPoint x="-2050" y="-1390" as="sourcePoint"/>
                        <mxPoint x="-1660" y="-1501" as="targetPoint"/>
                    </mxGeometry>
                </mxCell>
                <mxCell id="SZR8bBrm5BMhKsoexoeL-14" value="" style="endArrow=none;html=1;rounded=0;exitX=0.5;exitY=0;exitDx=0;exitDy=0;fontFamily=Times New Roman;" parent="1" source="SZR8bBrm5BMhKsoexoeL-4" edge="1">
                    <mxGeometry width="50" height="50" relative="1" as="geometry">
                        <mxPoint x="-1850" y="-1390" as="sourcePoint"/>
                        <mxPoint x="-1660" y="-1501" as="targetPoint"/>
                    </mxGeometry>
                </mxCell>
                <mxCell id="SZR8bBrm5BMhKsoexoeL-15" value="" style="endArrow=none;html=1;rounded=0;exitX=0.5;exitY=0;exitDx=0;exitDy=0;fontFamily=Times New Roman;" parent="1" source="SZR8bBrm5BMhKsoexoeL-6" edge="1">
                    <mxGeometry width="50" height="50" relative="1" as="geometry">
                        <mxPoint x="-1650" y="-1390" as="sourcePoint"/>
                        <mxPoint x="-1660" y="-1501" as="targetPoint"/>
                    </mxGeometry>
                </mxCell>
                <mxCell id="SZR8bBrm5BMhKsoexoeL-16" value="" style="endArrow=none;html=1;rounded=0;exitX=0.5;exitY=0;exitDx=0;exitDy=0;fontFamily=Times New Roman;" parent="1" source="SZR8bBrm5BMhKsoexoeL-3" edge="1">
                    <mxGeometry width="50" height="50" relative="1" as="geometry">
                        <mxPoint x="-1640" y="-1380" as="sourcePoint"/>
                        <mxPoint x="-1660" y="-1501" as="targetPoint"/>
                    </mxGeometry>
                </mxCell>
                <mxCell id="SZR8bBrm5BMhKsoexoeL-17" value="" style="endArrow=none;html=1;rounded=0;exitX=0.5;exitY=0;exitDx=0;exitDy=0;entryX=0.5;entryY=1;entryDx=0;entryDy=0;fontFamily=Times New Roman;" parent="1" source="SZR8bBrm5BMhKsoexoeL-7" target="SZR8bBrm5BMhKsoexoeL-3" edge="1">
                    <mxGeometry width="50" height="50" relative="1" as="geometry">
                        <mxPoint x="-1630" y="-1370" as="sourcePoint"/>
                        <mxPoint x="-1630" y="-1410" as="targetPoint"/>
                    </mxGeometry>
                </mxCell>
                <mxCell id="SZR8bBrm5BMhKsoexoeL-18" value="" style="endArrow=none;html=1;rounded=0;exitX=0.5;exitY=0;exitDx=0;exitDy=0;entryX=0.5;entryY=1;entryDx=0;entryDy=0;fontFamily=Times New Roman;" parent="1" source="SZR8bBrm5BMhKsoexoeL-8" target="SZR8bBrm5BMhKsoexoeL-3" edge="1">
                    <mxGeometry width="50" height="50" relative="1" as="geometry">
                        <mxPoint x="-1620" y="-1360" as="sourcePoint"/>
                        <mxPoint x="-1620" y="-1400" as="targetPoint"/>
                    </mxGeometry>
                </mxCell>
                <mxCell id="SZR8bBrm5BMhKsoexoeL-19" value="" style="endArrow=none;html=1;rounded=0;exitX=0.5;exitY=0;exitDx=0;exitDy=0;entryX=0.5;entryY=1;entryDx=0;entryDy=0;fontFamily=Times New Roman;" parent="1" source="SZR8bBrm5BMhKsoexoeL-11" target="SZR8bBrm5BMhKsoexoeL-7" edge="1">
                    <mxGeometry width="50" height="50" relative="1" as="geometry">
                        <mxPoint x="-1610" y="-1350" as="sourcePoint"/>
                        <mxPoint x="-1610" y="-1390" as="targetPoint"/>
                    </mxGeometry>
                </mxCell>
                <mxCell id="SZR8bBrm5BMhKsoexoeL-20" value="" style="endArrow=none;html=1;rounded=0;exitX=0.5;exitY=0;exitDx=0;exitDy=0;entryX=0.5;entryY=1;entryDx=0;entryDy=0;fontFamily=Times New Roman;" parent="1" source="SZR8bBrm5BMhKsoexoeL-10" target="SZR8bBrm5BMhKsoexoeL-2" edge="1">
                    <mxGeometry width="50" height="50" relative="1" as="geometry">
                        <mxPoint x="-1600" y="-1340" as="sourcePoint"/>
                        <mxPoint x="-1600" y="-1380" as="targetPoint"/>
                    </mxGeometry>
                </mxCell>
                <mxCell id="SZR8bBrm5BMhKsoexoeL-21" value="" style="endArrow=none;html=1;rounded=0;exitX=0.5;exitY=0;exitDx=0;exitDy=0;entryX=0.5;entryY=1;entryDx=0;entryDy=0;fontFamily=Times New Roman;" parent="1" source="SZR8bBrm5BMhKsoexoeL-9" target="SZR8bBrm5BMhKsoexoeL-2" edge="1">
                    <mxGeometry width="50" height="50" relative="1" as="geometry">
                        <mxPoint x="-1590" y="-1330" as="sourcePoint"/>
                        <mxPoint x="-1590" y="-1370" as="targetPoint"/>
                    </mxGeometry>
                </mxCell>
                <mxCell id="2" value="&lt;div&gt;&lt;span style=&quot;background-color: initial;&quot;&gt;João Pinto&lt;/span&gt;&lt;/div&gt;&lt;div&gt;&lt;span style=&quot;background-color: initial;&quot;&gt;(&lt;/span&gt;&lt;i style=&quot;background-color: initial;&quot;&gt;&lt;font&gt;????&lt;/font&gt;&lt;/i&gt;&lt;span style=&quot;background-color: initial;&quot;&gt;)&lt;/span&gt;&lt;/div&gt;" style="rounded=0;whiteSpace=wrap;html=1;fillColor=#d80073;fontColor=#ffffff;strokeColor=#A50040;fontFamily=Times New Roman;" parent="1" vertex="1">
                    <mxGeometry x="-1300" y="-1640" width="120" height="40" as="geometry"/>
                </mxCell>
                <mxCell id="3" value="&lt;div&gt;&lt;span style=&quot;background-color: initial;&quot;&gt;João Pedro Simões&lt;/span&gt;&lt;/div&gt;&lt;div&gt;&lt;span style=&quot;background-color: initial;&quot;&gt;(&lt;/span&gt;&lt;i style=&quot;background-color: initial;&quot;&gt;&lt;font&gt;????&lt;/font&gt;&lt;/i&gt;&lt;span style=&quot;background-color: initial;&quot;&gt;)&lt;/span&gt;&lt;/div&gt;" style="rounded=0;whiteSpace=wrap;html=1;fillColor=#CCCCCC;fontColor=#000000;fontFamily=Times New Roman;" parent="1" vertex="1">
                    <mxGeometry x="-1060" y="-1520" width="120" height="40" as="geometry"/>
                </mxCell>
                <mxCell id="4" value="" style="endArrow=none;html=1;rounded=0;exitX=0.5;exitY=1;exitDx=0;exitDy=0;entryX=0.5;entryY=0;entryDx=0;entryDy=0;fontFamily=Times New Roman;" parent="1" source="2" target="SZR8bBrm5BMhKsoexoeL-1" edge="1">
                    <mxGeometry width="50" height="50" relative="1" as="geometry">
                        <mxPoint x="-1450" y="-1390" as="sourcePoint"/>
                        <mxPoint x="-1650" y="-1430" as="targetPoint"/>
                    </mxGeometry>
                </mxCell>
                <mxCell id="5" value="" style="endArrow=none;html=1;rounded=0;exitX=0.5;exitY=0;exitDx=0;exitDy=0;entryX=0.5;entryY=1;entryDx=0;entryDy=0;fontFamily=Times New Roman;" parent="1" source="3" target="2" edge="1">
                    <mxGeometry width="50" height="50" relative="1" as="geometry">
                        <mxPoint x="-1350" y="-1590" as="sourcePoint"/>
                        <mxPoint x="-1590" y="-1470" as="targetPoint"/>
                    </mxGeometry>
                </mxCell>
                <mxCell id="6" value="&lt;div&gt;&lt;span style=&quot;background-color: initial;&quot;&gt;Pedro Cunha&lt;/span&gt;&lt;/div&gt;&lt;div&gt;&lt;span style=&quot;background-color: initial;&quot;&gt;(&lt;font&gt;&lt;i&gt;Mamas&lt;/i&gt;&lt;/font&gt;&lt;/span&gt;&lt;span style=&quot;background-color: initial;&quot;&gt;)&lt;/span&gt;&lt;/div&gt;" style="rounded=0;whiteSpace=wrap;html=1;fillColor=#000066;fontColor=#FFFFFF;fontFamily=Times New Roman;" parent="1" vertex="1">
                    <mxGeometry x="-1060" y="-1400" width="120" height="40" as="geometry"/>
                </mxCell>
                <mxCell id="7" value="" style="endArrow=none;html=1;rounded=0;exitX=0.5;exitY=0;exitDx=0;exitDy=0;entryX=0.5;entryY=1;entryDx=0;entryDy=0;fontFamily=Times New Roman;" parent="1" source="6" target="3" edge="1">
                    <mxGeometry width="50" height="50" relative="1" as="geometry">
                        <mxPoint x="-1250" y="-1310" as="sourcePoint"/>
                        <mxPoint x="-1190" y="-1350" as="targetPoint"/>
                    </mxGeometry>
                </mxCell>
                <mxCell id="8" value="&lt;div&gt;&lt;span style=&quot;background-color: initial;&quot;&gt;Inês Batista&lt;/span&gt;&lt;/div&gt;&lt;div&gt;&lt;span style=&quot;background-color: initial;&quot;&gt;(&lt;/span&gt;&lt;i style=&quot;background-color: initial;&quot;&gt;&lt;font&gt;????&lt;/font&gt;&lt;/i&gt;&lt;span style=&quot;background-color: initial;&quot;&gt;)&lt;/span&gt;&lt;/div&gt;" style="rounded=0;whiteSpace=wrap;html=1;fillColor=#f0a30a;fontColor=#000000;strokeColor=#BD7000;fontFamily=Times New Roman;" parent="1" vertex="1">
                    <mxGeometry x="-1920" y="-1520" width="120" height="40" as="geometry"/>
                </mxCell>
                <mxCell id="9" value="" style="endArrow=none;html=1;rounded=0;exitX=1;exitY=0.5;exitDx=0;exitDy=0;entryX=0;entryY=0.5;entryDx=0;entryDy=0;dashed=1;dashPattern=12 12;fontFamily=Times New Roman;" parent="1" source="8" target="SZR8bBrm5BMhKsoexoeL-1" edge="1">
                    <mxGeometry width="50" height="50" relative="1" as="geometry">
                        <mxPoint x="-2050" y="-1390" as="sourcePoint"/>
                        <mxPoint x="-1650" y="-1431" as="targetPoint"/>
                    </mxGeometry>
                </mxCell>
                <mxCell id="10" value="&lt;div&gt;&lt;span style=&quot;background-color: initial;&quot;&gt;Beatriz Tereso de Sá&lt;/span&gt;&lt;/div&gt;&lt;div&gt;&lt;span style=&quot;background-color: initial;&quot;&gt;(&lt;font&gt;&lt;i&gt;????&lt;/i&gt;&lt;/font&gt;&lt;/span&gt;&lt;span style=&quot;background-color: initial;&quot;&gt;)&lt;/span&gt;&lt;/div&gt;" style="rounded=0;whiteSpace=wrap;html=1;fillColor=#0050ef;fontColor=#ffffff;strokeColor=#001DBC;fontFamily=Times New Roman;" parent="1" vertex="1">
                    <mxGeometry x="-2120" y="-1320" width="120" height="40" as="geometry"/>
                </mxCell>
                <mxCell id="11" value="" style="endArrow=none;html=1;rounded=0;exitX=0.5;exitY=0;exitDx=0;exitDy=0;entryX=0.5;entryY=1;entryDx=0;entryDy=0;fontFamily=Times New Roman;" parent="1" source="10" target="SZR8bBrm5BMhKsoexoeL-5" edge="1">
                    <mxGeometry width="50" height="50" relative="1" as="geometry">
                        <mxPoint x="-1910" y="-1310" as="sourcePoint"/>
                        <mxPoint x="-1850" y="-1350" as="targetPoint"/>
                    </mxGeometry>
                </mxCell>
                <mxCell id="12" value="&lt;div&gt;João Martins&amp;nbsp;&lt;/div&gt;&lt;div&gt;(&lt;font&gt;&lt;i&gt;Mega Toukas&lt;/i&gt;&lt;/font&gt;)&lt;/div&gt;" style="rounded=0;whiteSpace=wrap;html=1;fillColor=#008a00;fontColor=#ffffff;strokeColor=#005700;fontFamily=Times New Roman;" parent="1" vertex="1">
                    <mxGeometry x="-1120" y="-1239.5" width="120" height="40" as="geometry"/>
                </mxCell>
                <mxCell id="13" value="" style="endArrow=none;html=1;rounded=0;exitX=0.5;exitY=0;exitDx=0;exitDy=0;entryX=0.5;entryY=1;entryDx=0;entryDy=0;fontFamily=Times New Roman;" parent="1" source="12" target="SZR8bBrm5BMhKsoexoeL-8" edge="1">
                    <mxGeometry width="50" height="50" relative="1" as="geometry">
                        <mxPoint x="-1170" y="-1220" as="sourcePoint"/>
                        <mxPoint x="-1170" y="-1260" as="targetPoint"/>
                    </mxGeometry>
                </mxCell>
                <mxCell id="14" value="2024&amp;nbsp;/ 2025" style="rounded=0;whiteSpace=wrap;html=1;fillColor=#FF0080;strokeColor=#996185;gradientColor=none;fontColor=#000000;fontFamily=Times New Roman;" parent="1" vertex="1">
                    <mxGeometry x="-2320" y="-1620" width="160" height="20" as="geometry"/>
                </mxCell>
                <mxCell id="15" value="&lt;div&gt;&lt;/div&gt;&lt;div&gt;Yorky Reyes&lt;br&gt;(&lt;i&gt;&lt;font&gt;????&lt;/font&gt;&lt;/i&gt;)&lt;/div&gt;" style="rounded=0;whiteSpace=wrap;html=1;fillColor=#FF0080;fontColor=#000000;strokeColor=#A50040;fontFamily=Times New Roman;" parent="1" vertex="1">
                    <mxGeometry x="-1000" y="-1240" width="120" height="40" as="geometry"/>
                </mxCell>
                <mxCell id="16" value="" style="endArrow=none;html=1;rounded=0;exitX=0.5;exitY=0;exitDx=0;exitDy=0;dashed=1;dashPattern=8 8;entryX=0.5;entryY=1;entryDx=0;entryDy=0;fontFamily=Times New Roman;" parent="1" source="15" target="SZR8bBrm5BMhKsoexoeL-8" edge="1">
                    <mxGeometry width="50" height="50" relative="1" as="geometry">
                        <mxPoint x="-1310" y="-1380" as="sourcePoint"/>
                        <mxPoint x="-1060" y="-1270" as="targetPoint"/>
                    </mxGeometry>
                </mxCell>
                <mxCell id="17" value="&lt;div&gt;&lt;/div&gt;&lt;div&gt;Ana Marques&lt;br&gt;(&lt;i&gt;&lt;font&gt;????&lt;/font&gt;&lt;/i&gt;)&lt;/div&gt;" style="rounded=0;whiteSpace=wrap;html=1;fillColor=#FF0080;fontColor=#000000;strokeColor=#A50040;fontFamily=Times New Roman;" parent="1" vertex="1">
                    <mxGeometry x="-1240" y="-1240" width="120" height="40" as="geometry"/>
                </mxCell>
                <mxCell id="18" value="" style="endArrow=none;html=1;rounded=0;exitX=0.5;exitY=0;exitDx=0;exitDy=0;dashed=1;dashPattern=8 8;entryX=0.5;entryY=1;entryDx=0;entryDy=0;fontFamily=Times New Roman;" parent="1" source="17" target="SZR8bBrm5BMhKsoexoeL-8" edge="1">
                    <mxGeometry width="50" height="50" relative="1" as="geometry">
                        <mxPoint x="-1450" y="-1301" as="sourcePoint"/>
                        <mxPoint x="-1140" y="-1260" as="targetPoint"/>
                    </mxGeometry>
                </mxCell>
            </root>
        </mxGraphModel>
    </diagram>
</mxfile>